<svg width="16" height="16" viewBox="0 0 16 16" fill="none" xmlns="http://www.w3.org/2000/svg">
<path fill-rule="evenodd" clip-rule="evenodd" d="M5.33333 0.666992C5.70153 0.666992 6 0.965472 6 1.33366V2.00185C6.19815 2.00032 6.41199 2.00033 6.64299 2.00033H9.357C9.588 2.00033 9.80187 2.00032 10 2.00185V1.33366C10 0.965472 10.2985 0.666992 10.6667 0.666992C11.0349 0.666992 11.3333 0.965472 11.3333 1.33366V2.08339C11.5461 2.11967 11.7473 2.17331 11.9423 2.25406C12.7591 2.59237 13.4079 3.24129 13.7463 4.05805C13.887 4.39785 13.9454 4.7567 13.9731 5.16253C14 5.5572 14 6.04214 14 6.64331V9.06933C14 9.80406 14 10.3966 13.9602 10.8762C13.9192 11.3701 13.8325 11.8036 13.6247 12.2036C13.3085 12.8124 12.8121 13.3088 12.2033 13.6251C11.8033 13.8328 11.3698 13.9195 10.8759 13.9605C10.3963 14.0003 9.80373 14.0003 9.069 14.0003H6.931C6.19629 14.0003 5.60371 14.0003 5.12411 13.9605C4.63023 13.9195 4.19675 13.8328 3.79675 13.6251C3.18794 13.3088 2.69154 12.8124 2.37529 12.2036C2.16751 11.8036 2.08083 11.3701 2.03981 10.8762C1.99999 10.3966 1.99999 9.80406 2 9.06933V6.64332C1.99999 6.04215 1.99999 5.5572 2.02692 5.16253C2.05461 4.7567 2.11299 4.39785 2.25373 4.05805C2.59205 3.24129 3.24096 2.59237 4.05772 2.25406C4.25267 2.17331 4.4539 2.11967 4.66667 2.08339V1.33366C4.66667 0.965472 4.96515 0.666992 5.33333 0.666992ZM4.66667 3.45017C4.63129 3.46127 4.59865 3.47319 4.56797 3.4859C4.07791 3.68889 3.68856 4.07824 3.48557 4.56829C3.42333 4.71855 3.38022 4.91535 3.35716 5.25329C3.34301 5.46063 3.33727 5.70267 3.33493 6.00033H12.6651C12.6627 5.70267 12.657 5.46063 12.6429 5.25329C12.6198 4.91535 12.5767 4.71855 12.5144 4.56829C12.3115 4.07824 11.9221 3.68889 11.4321 3.4859C11.4013 3.47319 11.3687 3.46127 11.3333 3.45017V4.00033C11.3333 4.36851 11.0349 4.66699 10.6667 4.66699C10.2985 4.66699 10 4.36851 10 4.00033V3.33525C9.80393 3.33372 9.58367 3.33366 9.33333 3.33366H6.66667C6.41632 3.33366 6.19609 3.33372 6 3.33525V4.00033C6 4.36851 5.70153 4.66699 5.33333 4.66699C4.96515 4.66699 4.66667 4.36851 4.66667 4.00033V3.45017ZM12.6667 7.33366H3.33333V9.04033C3.33333 9.81086 3.33387 10.3479 3.36857 10.7659C3.40262 11.1758 3.46606 11.411 3.55851 11.5889C3.74826 11.9543 4.0461 12.2521 4.41139 12.4418C4.58935 12.5343 4.82452 12.5977 5.23445 12.6317C5.65237 12.6665 6.18949 12.667 6.96 12.667H9.04C9.81053 12.667 10.3476 12.6665 10.7655 12.6317C11.1755 12.5977 11.4107 12.5343 11.5886 12.4418C11.9539 12.2521 12.2517 11.9543 12.4415 11.5889C12.5339 11.411 12.5974 11.1758 12.6314 10.7659C12.6661 10.3479 12.6667 9.81086 12.6667 9.04033V7.33366ZM8.66667 10.667C8.66667 10.2988 8.96513 10.0003 9.33333 10.0003H10.6667C11.0349 10.0003 11.3333 10.2988 11.3333 10.667C11.3333 11.0352 11.0349 11.3337 10.6667 11.3337H9.33333C8.96513 11.3337 8.66667 11.0352 8.66667 10.667Z" fill="#4F4F4F"/>
</svg>
