<svg width="24" height="24" viewBox="0 0 24 24" fill="none" xmlns="http://www.w3.org/2000/svg">
<g id="vuesax/bold/document-upload">
<g id="document-upload">
<path id="Vector" d="M20.5 10.19H17.61C15.24 10.19 13.31 8.26 13.31 5.89V3C13.31 2.45 12.86 2 12.31 2H8.07C4.99 2 2.5 4 2.5 7.57V16.43C2.5 20 4.99 22 8.07 22H15.93C19.01 22 21.5 20 21.5 16.43V11.19C21.5 10.64 21.05 10.19 20.5 10.19ZM11.53 13.53C11.38 13.68 11.19 13.75 11 13.75C10.81 13.75 10.62 13.68 10.47 13.53L9.75 12.81V17C9.75 17.41 9.41 17.75 9 17.75C8.59 17.75 8.25 17.41 8.25 17V12.81L7.53 13.53C7.24 13.82 6.76 13.82 6.47 13.53C6.18 13.24 6.18 12.76 6.47 12.47L8.47 10.47C8.54 10.41 8.61 10.36 8.69 10.32C8.71 10.31 8.74 10.3 8.76 10.29C8.82 10.27 8.88 10.26 8.95 10.25C8.98 10.25 9 10.25 9.03 10.25C9.11 10.25 9.19 10.27 9.27 10.3C9.28 10.3 9.28 10.3 9.29 10.3C9.37 10.33 9.45 10.39 9.51 10.45C9.52 10.46 9.53 10.46 9.53 10.47L11.53 12.47C11.82 12.76 11.82 13.24 11.53 13.53Z" fill="#22CD80"/>
<path id="Vector_2" d="M17.435 8.31051L17.435 8.31048H17.4297C16.1826 8.31048 15.1797 7.31125 15.1797 6.14048V2.65048C15.1797 2.6159 15.1892 2.59436 15.2009 2.57833C15.2145 2.55973 15.2373 2.54073 15.269 2.52826C15.3323 2.50335 15.3962 2.51415 15.4461 2.56403C16.4446 3.56245 17.9434 5.07493 19.2556 6.39909C19.8876 7.03684 20.4763 7.6309 20.9449 8.10281L20.9461 8.10403C20.972 8.12986 20.9791 8.15096 20.9815 8.1661C20.9845 8.18415 20.9825 8.2077 20.9712 8.23314C20.9492 8.28292 20.9027 8.32048 20.8297 8.32048C19.6987 8.32048 18.3817 8.32048 17.435 8.31051Z" fill="#22CD80" stroke="#FAFAFA"/>
</g>
</g>
</svg>
