<svg width="62" height="40" viewBox="0 0 62 40" fill="none" xmlns="http://www.w3.org/2000/svg">
<g clip-path="url(#clip0_257_1099)">
<path d="M56.0952 0H5.90476C2.64365 0 0 2.38781 0 5.33333V34.6667C0 37.6122 2.64365 40 5.90476 40H56.0952C59.3563 40 62 37.6122 62 34.6667V5.33333C62 2.38781 59.3563 0 56.0952 0Z" fill="#F93939"/>
<path fill-rule="evenodd" clip-rule="evenodd" d="M0 0H19.7273V40H0V0Z" fill="#151515"/>
<path fill-rule="evenodd" clip-rule="evenodd" d="M42.2734 0H62.0007V40H42.2734V0Z" fill="#249F58"/>
<path fill-rule="evenodd" clip-rule="evenodd" d="M30.9981 26.6663C35.0724 26.6663 38.3791 23.6797 38.3791 19.9997C38.3791 16.3197 35.0724 13.333 30.9981 13.333C26.9239 13.333 23.6172 16.3197 23.6172 19.9997C23.6172 23.6797 26.9239 26.6663 30.9981 26.6663ZM30.9981 23.9997C33.4427 23.9997 35.4267 21.613 35.4267 18.6663C35.4267 15.7197 33.4427 13.333 30.9981 13.333C28.5536 13.333 26.5696 15.7197 26.5696 18.6663C26.5696 21.613 28.5536 23.9997 30.9981 23.9997ZM30.9981 21.333C31.813 21.333 32.4743 20.1383 32.4743 18.6663C32.4743 17.1943 31.813 15.9997 30.9981 15.9997C30.1833 15.9997 29.5219 17.1943 29.5219 18.6663C29.5219 20.1383 30.1833 21.333 30.9981 21.333Z" fill="white"/>
</g>
<defs>
<clipPath id="clip0_257_1099">
<rect width="62" height="40" rx="2" fill="white"/>
</clipPath>
</defs>
</svg>
