<svg width="16" height="16" viewBox="0 0 16 16" fill="none" xmlns="http://www.w3.org/2000/svg">
<path fill-rule="evenodd" clip-rule="evenodd" d="M1.33203 4C1.33203 2.89543 2.22746 2 3.33203 2H5.82927C6.53718 2 7.21603 2.28149 7.71623 2.78243L8.93203 4H11.327C13.1704 4 14.6638 5.4962 14.6604 7.3396L14.6528 11.3396C14.6494 13.1781 13.158 14.6667 11.3195 14.6667H4.66536C2.82442 14.6667 1.33203 13.1743 1.33203 11.3333V4ZM7.7135 4.66667L6.77276 3.72455C6.52266 3.47407 6.18322 3.33333 5.82927 3.33333H3.33203C2.96384 3.33333 2.66536 3.63181 2.66536 4V6H5.82927C6.18323 6 6.52266 5.85926 6.77276 5.60879L7.7135 4.66667ZM2.66536 7.33333V11.3333C2.66536 12.4379 3.5608 13.3333 4.66536 13.3333H11.3195C12.4226 13.3333 13.3174 12.4402 13.3195 11.3371L13.327 7.33707C13.3291 6.23105 12.433 5.33333 11.327 5.33333H8.93203L7.71623 6.55091C7.21603 7.05187 6.53718 7.33333 5.82927 7.33333H2.66536Z" fill="#4F4F4F"/>
</svg>
