<svg width="16" height="16" viewBox="0 0 16 16" fill="none" xmlns="http://www.w3.org/2000/svg">
<path fill-rule="evenodd" clip-rule="evenodd" d="M8.18518 2.47711C8.06344 2.44166 7.93411 2.44166 7.81231 2.47711C7.77731 2.48732 7.71571 2.51285 7.58471 2.61203C7.44698 2.71634 7.27831 2.86562 7.01551 3.09922L3.5224 6.20418C3.09417 6.58484 2.97277 6.69965 2.88837 6.82658C2.80718 6.94872 2.7467 7.08338 2.70936 7.22518C2.67054 7.37265 2.66541 7.53958 2.66541 8.11258V11.4466C2.66541 12.0273 2.66595 12.422 2.69127 12.7269C2.71593 13.0239 2.76061 13.1755 2.81553 13.2812C2.94203 13.5247 3.14059 13.7233 3.38412 13.8498C3.48983 13.9047 3.64142 13.9494 3.93838 13.9741C4.24332 13.9994 4.63806 13.9999 5.21874 13.9999H5.33208V11.9999C5.33208 10.5272 6.52598 9.33325 7.99878 9.33325C9.47151 9.33325 10.6654 10.5272 10.6654 11.9999V13.9999H10.7788C11.3594 13.9999 11.7542 13.9994 12.0591 13.9741C12.356 13.9494 12.5076 13.9047 12.6134 13.8498C12.8569 13.7233 13.0554 13.5247 13.182 13.2812C13.2369 13.1755 13.2816 13.0239 13.3062 12.7269C13.3315 12.422 13.3321 12.0273 13.3321 11.4466V8.11258C13.3321 7.53958 13.327 7.37265 13.2881 7.22518C13.2508 7.08338 13.1903 6.94872 13.1091 6.82658C13.0247 6.69965 12.9033 6.58484 12.4751 6.20418L8.98198 3.09922C8.71918 2.86562 8.55051 2.71634 8.41278 2.61203C8.28178 2.51285 8.22018 2.48732 8.18518 2.47711ZM7.43951 1.19696C7.80478 1.0906 8.19271 1.0906 8.55798 1.19696C8.81138 1.27076 9.02151 1.40055 9.21758 1.549C9.40224 1.68882 9.61024 1.87368 9.84971 2.08655L13.3609 5.20764C13.3798 5.22444 13.3984 5.24102 13.4169 5.25738C13.7647 5.56619 14.0274 5.79948 14.2195 6.08843C14.3818 6.33269 14.5028 6.60206 14.5775 6.88572C14.6658 7.22125 14.6657 7.57258 14.6654 8.03765C14.6654 8.06232 14.6654 8.08725 14.6654 8.11258V11.4746C14.6654 12.0203 14.6654 12.4707 14.635 12.8373C14.6034 13.2182 14.5354 13.5681 14.3652 13.8959C14.1122 14.3829 13.715 14.78 13.228 15.033C12.9002 15.2033 12.5504 15.2712 12.1694 15.3028C11.8028 15.3333 11.3524 15.3333 10.8067 15.3333H10.5354C10.5302 15.3333 10.525 15.3333 10.5197 15.3333C10.439 15.3333 10.3426 15.3333 10.2576 15.3263C10.1592 15.3181 10.0182 15.2971 9.87111 15.2207C9.68844 15.1258 9.53951 14.9769 9.44464 14.7943C9.36824 14.6471 9.34724 14.5061 9.33904 14.4077C9.33198 14.3228 9.33204 14.2263 9.33204 14.1456L9.33211 11.9999C9.33211 11.2635 8.73511 10.6666 7.99878 10.6666C7.26238 10.6666 6.66541 11.2635 6.66541 11.9999L6.66542 14.1456C6.66544 14.2263 6.66551 14.3228 6.65844 14.4077C6.65026 14.5061 6.62926 14.6471 6.55282 14.7943C6.45795 14.9769 6.30903 15.1258 6.12639 15.2207C5.97924 15.2971 5.8383 15.3181 5.73984 15.3263C5.65493 15.3333 5.5585 15.3333 5.47776 15.3333C5.47246 15.3333 5.46723 15.3333 5.46208 15.3333H5.19076C4.64507 15.3333 4.1947 15.3333 3.82803 15.3028C3.44713 15.2712 3.09724 15.2033 2.76948 15.033C2.28243 14.78 1.88531 14.3829 1.63231 13.8959C1.46206 13.5681 1.39414 13.2182 1.36251 12.8373C1.33206 12.4707 1.33207 12.0203 1.33208 11.4746V8.11258C1.33208 8.08725 1.33206 8.06232 1.33206 8.03765C1.33181 7.57258 1.33163 7.22125 1.41998 6.88572C1.49466 6.60206 1.61563 6.33269 1.778 6.08843C1.97008 5.79948 2.23281 5.56619 2.58059 5.25738C2.59902 5.24102 2.61768 5.22444 2.63658 5.20764L6.1478 2.08656C6.38727 1.87368 6.59522 1.68882 6.77991 1.549C6.97598 1.40055 7.18611 1.27076 7.43951 1.19696Z" fill="#4F4F4F"/>
</svg>
