<svg width="25" height="24" viewBox="0 0 25 24" fill="none" xmlns="http://www.w3.org/2000/svg">
<path d="M21 10.19H18.11C15.74 10.19 13.81 8.26 13.81 5.89V3C13.81 2.45 13.36 2 12.81 2H8.57C5.49 2 3 4 3 7.57V16.43C3 20 5.49 22 8.57 22H16.43C19.51 22 22 20 22 16.43V11.19C22 10.64 21.55 10.19 21 10.19ZM12.03 13.53C11.88 13.68 11.69 13.75 11.5 13.75C11.31 13.75 11.12 13.68 10.97 13.53L10.25 12.81V17C10.25 17.41 9.91 17.75 9.5 17.75C9.09 17.75 8.75 17.41 8.75 17V12.81L8.03 13.53C7.74 13.82 7.26 13.82 6.97 13.53C6.68 13.24 6.68 12.76 6.97 12.47L8.97 10.47C9.04 10.41 9.11 10.36 9.19 10.32C9.21 10.31 9.24 10.3 9.26 10.29C9.32 10.27 9.38 10.26 9.45 10.25C9.48 10.25 9.5 10.25 9.53 10.25C9.61 10.25 9.69 10.27 9.77 10.3C9.78 10.3 9.78 10.3 9.79 10.3C9.87 10.33 9.95 10.39 10.01 10.45C10.02 10.46 10.03 10.46 10.03 10.47L12.03 12.47C12.32 12.76 12.32 13.24 12.03 13.53Z" fill="#3981F7"/>
<path d="M17.935 8.31051L17.935 8.31048H17.9297C16.6826 8.31048 15.6797 7.31125 15.6797 6.14048V2.65048C15.6797 2.6159 15.6892 2.59436 15.7009 2.57833C15.7145 2.55973 15.7373 2.54073 15.769 2.52826C15.8323 2.50335 15.8962 2.51415 15.9461 2.56403C16.9446 3.56245 18.4434 5.07493 19.7556 6.39909C20.3876 7.03684 20.9763 7.6309 21.4449 8.10281L21.4461 8.10403C21.472 8.12986 21.4791 8.15096 21.4815 8.1661C21.4845 8.18415 21.4825 8.2077 21.4712 8.23314C21.4492 8.28292 21.4027 8.32048 21.3297 8.32048C20.1987 8.32048 18.8817 8.32048 17.935 8.31051Z" fill="#3981F7" stroke="#FAFAFA"/>
</svg>
