<svg width="132" height="47" viewBox="0 0 132 47" fill="none" xmlns="http://www.w3.org/2000/svg">
<g id="Layer_1" clip-path="url(#clip0_32_15645)">
<g id="Group">
<g id="Group_2">
<path id="Vector" d="M59.2968 34.1917L57.0098 29.042H57.5999L59.7401 33.8901H59.4142L61.5691 29.042H62.121L59.834 34.1917H59.2968Z" fill="white"/>
<path id="Vector_2" d="M73.9314 34.2356C73.5439 34.2356 73.1828 34.1711 72.8511 34.0394C72.5193 33.9106 72.2316 33.7261 71.9879 33.489C71.7443 33.2519 71.5564 32.9738 71.4213 32.6576C71.2863 32.3414 71.2188 31.993 71.2188 31.6153C71.2188 31.2377 71.2863 30.8893 71.4213 30.5731C71.5564 30.2569 71.7472 29.9788 71.9879 29.7417C72.2316 29.5045 72.5164 29.3201 72.8481 29.1913C73.1769 29.0625 73.538 28.9951 73.9314 28.9951C74.3248 28.9951 74.6801 29.0595 75.0089 29.1913C75.3377 29.3201 75.6254 29.5045 75.8691 29.7387C76.1127 29.9729 76.3006 30.2511 76.4386 30.5702C76.5737 30.8893 76.6412 31.2377 76.6412 31.6153C76.6412 31.993 76.5737 32.3414 76.4386 32.6605C76.3036 32.9796 76.1127 33.2577 75.8691 33.4919C75.6254 33.7262 75.3406 33.9106 75.0089 34.0394C74.6801 34.1682 74.319 34.2356 73.9314 34.2356ZM73.9314 33.7496C74.2426 33.7496 74.5274 33.6969 74.7916 33.5915C75.0559 33.4861 75.2819 33.3368 75.4786 33.1436C75.6724 32.9503 75.825 32.7249 75.9337 32.4673C76.0423 32.2096 76.0951 31.9257 76.0951 31.6183C76.0951 31.3109 76.0423 31.0269 75.9337 30.7693C75.825 30.5116 75.6753 30.2862 75.4786 30.093C75.2819 29.8998 75.0559 29.7504 74.7916 29.645C74.5274 29.5397 74.2426 29.487 73.9314 29.487C73.6202 29.487 73.3325 29.5397 73.0683 29.645C72.8041 29.7504 72.5722 29.8998 72.3755 30.093C72.1788 30.2862 72.0261 30.5116 71.9175 30.7693C71.8088 31.0269 71.756 31.3109 71.756 31.6183C71.756 31.9257 71.8088 32.2038 71.9175 32.4643C72.0261 32.7249 72.1788 32.9503 72.3755 33.1436C72.5722 33.3368 72.8041 33.4861 73.0683 33.5915C73.3325 33.6969 73.6202 33.7496 73.9314 33.7496Z" fill="white"/>
<path id="Vector_3" d="M87.724 34.1917V32.2799L87.8503 32.6195L85.6602 29.0449H86.2415L88.1673 32.1863H87.8561L89.782 29.0449H90.3281L88.138 32.6195L88.2642 32.2799V34.1917H87.727H87.724Z" fill="white"/>
<path id="Vector_4" d="M98.9014 34.1917L101.262 29.042H101.799L104.159 34.1917H103.584L101.414 29.3582H101.635L99.465 34.1917H98.8984H98.9014ZM99.8291 32.8157L99.9906 32.3736H102.994L103.155 32.8157H99.8291Z" fill="white"/>
<path id="Vector_5" d="M116.057 34.2356C115.664 34.2356 115.3 34.1711 114.968 34.0394C114.637 33.9106 114.349 33.7262 114.105 33.4919C113.861 33.2577 113.674 32.9796 113.539 32.6605C113.403 32.3414 113.336 31.993 113.336 31.6153C113.336 31.2377 113.403 30.8893 113.539 30.5702C113.674 30.2511 113.864 29.9729 114.111 29.7387C114.358 29.5045 114.645 29.3201 114.977 29.1913C115.309 29.0625 115.673 28.9951 116.066 28.9951C116.46 28.9951 116.821 29.0566 117.147 29.1796C117.473 29.3025 117.751 29.4899 117.983 29.7387L117.643 30.0842C117.426 29.8675 117.188 29.7153 116.926 29.6216C116.665 29.5279 116.386 29.4811 116.087 29.4811C115.767 29.4811 115.473 29.5338 115.206 29.6392C114.939 29.7446 114.704 29.8939 114.504 30.0871C114.305 30.2803 114.149 30.5058 114.041 30.7634C113.929 31.021 113.873 31.305 113.873 31.6124C113.873 31.9198 113.929 32.1979 114.041 32.4585C114.152 32.719 114.305 32.9445 114.504 33.1377C114.704 33.3309 114.936 33.4802 115.206 33.5856C115.473 33.691 115.767 33.7437 116.081 33.7437C116.375 33.7437 116.653 33.6998 116.918 33.612C117.182 33.5241 117.423 33.3748 117.643 33.164L117.954 33.5768C117.707 33.7935 117.42 33.9545 117.091 34.0658C116.762 34.177 116.416 34.2326 116.057 34.2326V34.2356ZM117.428 33.5124V31.6153H117.951V33.5798L117.428 33.5124Z" fill="white"/>
<path id="Vector_6" d="M128.894 33.7203H132V34.1917H128.348V29.042H131.888V29.5133H128.894V33.7203ZM128.835 31.3431H131.565V31.8057H128.835V31.3431Z" fill="white"/>
</g>
<g id="Group_3">
<path id="Vector_7" d="M75.3151 17.6124C75.3151 21.3568 72.2707 24.3928 68.5158 24.3928H63.0757C59.3208 24.3928 56.2734 21.3568 56.2734 17.6124C56.2734 13.868 59.3179 10.8291 63.0757 10.8291H68.5158C72.2707 10.8291 75.3151 13.865 75.3151 17.6124ZM71.2343 17.6124C71.2343 15.8646 69.8134 14.4476 68.0607 14.4476H63.5278C61.7752 14.4476 60.3542 15.8646 60.3542 17.6124C60.3542 19.3602 61.7752 20.7772 63.5278 20.7772H68.0607C69.8134 20.7772 71.2343 19.3602 71.2343 17.6124Z" fill="white"/>
<path id="Vector_8" d="M84.3484 17.6124C84.3484 19.4422 85.8368 20.9265 87.6717 20.9265H93.8692V19.2694H88.4291V15.9524H97.95V24.3928H87.0699C83.3149 24.3928 80.2676 21.3568 80.2676 17.6124C80.2676 13.868 83.312 10.8291 87.0699 10.8291H97.95V14.2954H87.6746C85.8398 14.2954 84.3513 15.7797 84.3513 17.6095L84.3484 17.6124Z" fill="white"/>
<path id="Vector_9" d="M107.567 17.6124C107.567 19.4422 109.056 20.9265 110.89 20.9265H117.088V19.2694H111.648V15.9524H121.169V24.3928H110.289C106.534 24.3928 103.486 21.3568 103.486 17.6124C103.486 13.868 106.531 10.8291 110.289 10.8291H121.169V14.2954H110.893C109.059 14.2954 107.57 15.7797 107.57 17.6095L107.567 17.6124Z" fill="white"/>
<path id="Vector_10" d="M127.326 24.3957V10.832H131.407V24.3957H127.326Z" fill="white"/>
</g>
</g>
<g id="Group_4">
<path id="Vector_11" d="M22.2571 -4.13647e-06C22.2365 -4.13647e-06 22.2189 -4.13647e-06 22.1984 -4.13647e-06C21.6699 0.0351273 21.1444 0.0848968 20.6248 0.152232C20.7657 5.63274 20.6306 11.1132 20.1521 16.582C19.606 22.7915 18.6783 28.9366 16.6585 34.8679C15.5517 38.1147 14.1014 41.1857 11.9759 43.9143C11.9318 43.9728 11.8878 44.0226 11.8438 44.0753C14.3803 45.542 17.2134 46.5491 20.2284 46.9941C21.0739 34.1712 22.3863 18.8539 22.2571 -0.00585938V-4.13647e-06Z" fill="white"/>
<path id="Vector_12" d="M14.6849 26.1113C16.3466 21.9073 17.2567 17.5188 17.7793 13.0424C18.2754 8.7886 18.4281 3.52474 18.4721 1.02748C18.4721 0.860608 18.4839 0.696662 18.4986 0.532715C7.91201 2.90116 0 12.331 0 23.6082C0 29.2175 1.95819 34.3701 5.23455 38.4249C6.45879 37.652 7.59201 36.7444 8.63422 35.7051C11.3792 32.9678 13.2728 29.686 14.6849 26.1113Z" fill="white"/>
<path id="Vector_13" d="M30.7812 34.8709C28.7584 28.9395 27.8307 22.7944 27.2846 16.585C26.8061 11.1162 26.671 5.63567 26.812 0.155166C26.2865 0.0878306 25.7551 0.0351335 25.2178 0.00292969C25.2119 0.00292969 25.2031 0.00292969 25.1973 0.00292969C25.2266 18.1073 26.583 33.9604 27.6722 46.9327C30.517 46.4555 33.1915 45.4747 35.5959 44.0841C35.5489 44.0314 35.5078 43.9787 35.4638 43.9231C33.3353 41.1945 31.888 38.1205 30.7812 34.8767V34.8709Z" fill="white"/>
<path id="Vector_14" d="M28.9375 0.529783C28.9522 0.69373 28.9639 0.857676 28.9639 1.02455C29.0109 3.52181 29.1606 8.7886 29.6568 13.0395C30.1793 17.5158 31.0895 21.9043 32.7541 26.1084C34.1662 29.683 36.0568 32.962 38.8048 35.7022C39.847 36.7415 40.9773 37.6491 42.2015 38.422C45.4779 34.3672 47.4361 29.2146 47.4361 23.6053C47.4361 12.3281 39.524 2.89823 28.9375 0.526855V0.529783Z" fill="white"/>
</g>
</g>
<defs>
<clipPath id="clip0_32_15645">
<rect width="132" height="47" fill="white"/>
</clipPath>
</defs>
</svg>
