<svg width="24" height="24" viewBox="0 0 24 24" fill="none" xmlns="http://www.w3.org/2000/svg">
<circle cx="12" cy="12" r="12" fill="#CCE1FF"/>
<path d="M15.4989 9.17699C15.4639 9.17116 15.4231 9.17116 15.3881 9.17699C14.5831 9.14783 13.9414 8.48866 13.9414 7.67199C13.9414 6.83783 14.6122 6.16699 15.4464 6.16699C16.2806 6.16699 16.9514 6.84366 16.9514 7.67199C16.9456 8.48866 16.3039 9.14783 15.4989 9.17699Z" stroke="#3981F7" stroke-linecap="round" stroke-linejoin="round"/>
<path d="M14.8964 13.4238C15.6956 13.5579 16.5764 13.4179 17.1947 13.0038C18.0172 12.4554 18.0172 11.5571 17.1947 11.0088C16.5706 10.5946 15.6781 10.4546 14.8789 10.5946" stroke="#3981F7" stroke-linecap="round" stroke-linejoin="round"/>
<path d="M8.48375 9.17699C8.51875 9.17116 8.55958 9.17116 8.59458 9.17699C9.39958 9.14783 10.0413 8.48866 10.0413 7.67199C10.0413 6.83783 9.37042 6.16699 8.53625 6.16699C7.70208 6.16699 7.03125 6.84366 7.03125 7.67199C7.03708 8.48866 7.67875 9.14783 8.48375 9.17699Z" stroke="#3981F7" stroke-linecap="round" stroke-linejoin="round"/>
<path d="M9.08318 13.4238C8.28401 13.5579 7.40318 13.4179 6.78484 13.0038C5.96234 12.4554 5.96234 11.5571 6.78484 11.0088C7.40901 10.5946 8.30151 10.4546 9.10068 10.5946" stroke="#3981F7" stroke-linecap="round" stroke-linejoin="round"/>
<path d="M12.0028 13.5344C11.9678 13.5286 11.927 13.5286 11.892 13.5344C11.087 13.5052 10.4453 12.8461 10.4453 12.0294C10.4453 11.1952 11.1161 10.5244 11.9503 10.5244C12.7845 10.5244 13.4553 11.2011 13.4553 12.0294C13.4495 12.8461 12.8078 13.5111 12.0028 13.5344Z" stroke="#3981F7" stroke-linecap="round" stroke-linejoin="round"/>
<path d="M10.3044 15.372C9.48188 15.9203 9.48188 16.8186 10.3044 17.367C11.2377 17.9911 12.766 17.9911 13.6994 17.367C14.5219 16.8186 14.5219 15.9203 13.6994 15.372C12.7719 14.7536 11.2377 14.7536 10.3044 15.372Z" stroke="#3981F7" stroke-linecap="round" stroke-linejoin="round"/>
</svg>
