<svg width="53" height="30" viewBox="0 0 53 30" fill="none" xmlns="http://www.w3.org/2000/svg">
<rect width="53" height="30" rx="15" fill="#0A112F"/>
<path d="M15.65 19.23V16.57H13.2V15.31H15.65V12.65H16.98V15.31H19.43V16.57H16.98V19.23H15.65ZM20.6889 20V18.74L24.7209 14.68C24.9916 14.4093 25.1782 14.1713 25.2809 13.966C25.3929 13.7513 25.4489 13.476 25.4489 13.14C25.4489 12.608 25.3042 12.1973 25.0149 11.908C24.7349 11.6093 24.3429 11.46 23.8389 11.46C23.3442 11.46 22.9289 11.6373 22.5929 11.992C22.2569 12.3467 22.0889 12.7993 22.0889 13.35H20.6189C20.6189 12.37 20.9176 11.5767 21.5149 10.97C22.1122 10.3633 22.8869 10.06 23.8389 10.06C24.7909 10.06 25.5516 10.3447 26.1209 10.914C26.6996 11.474 26.9889 12.216 26.9889 13.14C26.9889 13.672 26.8676 14.134 26.6249 14.526C26.3916 14.918 26.0462 15.3427 25.5889 15.8L22.8589 18.53V18.6H27.1289V20H20.6889ZM29.9262 20V12.65H27.8962V11.25H29.5062C29.7862 11.25 29.9262 11.11 29.9262 10.83V10.2H31.3962V20H29.9262ZM32.7907 17.2H34.2607C34.2607 17.6013 34.438 17.9607 34.7927 18.278C35.1567 18.586 35.6094 18.74 36.1507 18.74C36.7294 18.74 37.1774 18.6 37.4947 18.32C37.812 18.04 37.9707 17.6667 37.9707 17.2C37.9707 16.7613 37.798 16.3973 37.4527 16.108C37.1167 15.8093 36.6594 15.66 36.0807 15.66H35.4507V14.33H36.0807C36.622 14.33 37.0467 14.1947 37.3547 13.924C37.672 13.644 37.8307 13.2893 37.8307 12.86C37.8307 12.4587 37.6767 12.1273 37.3687 11.866C37.07 11.5953 36.664 11.46 36.1507 11.46C35.628 11.46 35.2034 11.5953 34.8767 11.866C34.5594 12.1273 34.4007 12.4587 34.4007 12.86H32.9307C32.9307 12.076 33.2247 11.4133 33.8127 10.872C34.41 10.3307 35.1894 10.06 36.1507 10.06C37.084 10.06 37.84 10.3307 38.4187 10.872C39.0067 11.4133 39.3007 12.076 39.3007 12.86C39.3007 13.4947 39.0674 14.036 38.6007 14.484C38.3954 14.68 38.162 14.8387 37.9007 14.96V15.03C38.19 15.1607 38.4467 15.324 38.6707 15.52C39.184 15.996 39.4407 16.5793 39.4407 17.27C39.4407 18.0913 39.1327 18.7773 38.5167 19.328C37.91 19.8693 37.1214 20.14 36.1507 20.14C35.152 20.14 34.34 19.86 33.7147 19.3C33.0987 18.7307 32.7907 18.0307 32.7907 17.2Z" fill="white"/>
</svg>
