<svg width="16" height="16" viewBox="0 0 16 16" fill="none" xmlns="http://www.w3.org/2000/svg">
<g clip-path="url(#clip0_136_6564)">
<path fill-rule="evenodd" clip-rule="evenodd" d="M7.9987 5.33301C6.52594 5.33301 5.33203 6.52691 5.33203 7.99966C5.33203 9.47246 6.52594 10.6663 7.9987 10.6663C9.47144 10.6663 10.6654 9.47246 10.6654 7.99966C10.6654 6.52691 9.47144 5.33301 7.9987 5.33301ZM6.66536 7.99966C6.66536 7.26333 7.2623 6.66633 7.9987 6.66633C8.7351 6.66633 9.33204 7.26333 9.33204 7.99966C9.33204 8.73606 8.7351 9.33299 7.9987 9.33299C7.2623 9.33299 6.66536 8.73606 6.66536 7.99966Z" fill="#4F4F4F"/>
<path fill-rule="evenodd" clip-rule="evenodd" d="M7.9987 5.33301C6.52594 5.33301 5.33203 6.52691 5.33203 7.99966C5.33203 9.47246 6.52594 10.6663 7.9987 10.6663C9.47144 10.6663 10.6654 9.47246 10.6654 7.99966C10.6654 6.52691 9.47144 5.33301 7.9987 5.33301ZM6.66536 7.99966C6.66536 7.26333 7.2623 6.66633 7.9987 6.66633C8.7351 6.66633 9.33204 7.26333 9.33204 7.99966C9.33204 8.73606 8.7351 9.33299 7.9987 9.33299C7.2623 9.33299 6.66536 8.73606 6.66536 7.99966Z" fill="#4F4F4F"/>
<path fill-rule="evenodd" clip-rule="evenodd" d="M7.17779 0.678386C7.32793 0.666879 7.49653 0.666946 7.63399 0.667H8.36519C8.50266 0.666946 8.67126 0.666879 8.82139 0.678386C8.99886 0.691986 9.24479 0.726566 9.50853 0.846573C9.84193 0.998253 10.1273 1.23857 10.3334 1.54131C10.4965 1.78083 10.5724 2.01733 10.616 2.18986C10.6529 2.33589 10.6815 2.50199 10.7047 2.63746L10.7991 3.18456L10.801 3.18558C10.8242 3.19841 10.8473 3.21139 10.8703 3.22453L10.872 3.22549L11.4966 2.99943C11.6233 2.95351 11.7791 2.89705 11.9219 2.85728C12.091 2.81019 12.3299 2.75959 12.614 2.7805C12.9739 2.80698 13.3198 2.93031 13.6153 3.13741C13.8485 3.30096 14.0015 3.49123 14.1027 3.63466C14.1882 3.75583 14.2731 3.89813 14.3423 4.01385L14.6768 4.57368C14.75 4.69596 14.8392 4.84508 14.9081 4.98384C14.9891 5.14719 15.0881 5.38349 15.1181 5.68077C15.1557 6.05514 15.087 6.43253 14.9198 6.76959C14.787 7.03726 14.611 7.22346 14.4775 7.34779C14.3642 7.45333 14.2281 7.56146 14.1166 7.65006L13.6663 8.00033L14.1166 8.35059C14.2281 8.43926 14.3642 8.54733 14.4775 8.65293C14.611 8.77719 14.787 8.96339 14.9197 9.23106C15.0869 9.56813 15.1557 9.94553 15.118 10.3199C15.0881 10.6172 14.9891 10.8535 14.908 11.0169C14.8391 11.1556 14.7499 11.3047 14.6768 11.427L14.3421 11.9869C14.2731 12.1027 14.1881 12.2449 14.1027 12.366C14.0015 12.5095 13.8485 12.6997 13.6152 12.8633C13.3198 13.0704 12.9738 13.1937 12.614 13.2202C12.3299 13.2411 12.091 13.1905 11.9219 13.1434C11.7791 13.1036 11.6233 13.0472 11.4965 13.0013L10.8719 12.7752L10.8703 12.7762C10.8473 12.7893 10.8242 12.8023 10.801 12.8151L10.7991 12.8161L10.7047 13.3632C10.6815 13.4987 10.6529 13.6648 10.616 13.8108C10.5724 13.9833 10.4965 14.2199 10.3334 14.4594C10.1273 14.7621 9.84193 15.0025 9.50853 15.1541C9.24479 15.2741 8.99886 15.3087 8.82139 15.3223C8.6712 15.3338 8.50266 15.3337 8.36519 15.3337H7.63399C7.49653 15.3337 7.32793 15.3338 7.17779 15.3223C7.00033 15.3087 6.75439 15.2741 6.49063 15.1541C6.15725 15.0025 5.87192 14.7621 5.66577 14.4594C5.50267 14.2199 5.42677 13.9833 5.38321 13.8108C5.34633 13.6648 5.31775 13.4987 5.29443 13.3632L5.20005 12.8161L5.1982 12.8151C5.17499 12.8023 5.15189 12.7893 5.1289 12.7761L5.12721 12.7752L4.50265 13.0013C4.37593 13.0471 4.22011 13.1036 4.07727 13.1434C3.90818 13.1905 3.66935 13.2411 3.3852 13.2202C3.02537 13.1937 2.6794 13.0704 2.38395 12.8633C2.15066 12.6997 1.99769 12.5095 1.89652 12.366C1.81105 12.2449 1.72609 12.1026 1.65699 11.9869L1.32238 11.427C1.24924 11.3047 1.16004 11.1556 1.09117 11.0169C1.01009 10.8535 0.911054 10.6172 0.881161 10.3199C0.843514 9.94553 0.912241 9.56813 1.07943 9.23106C1.21221 8.96339 1.38819 8.77719 1.52165 8.65293C1.63501 8.54733 1.77104 8.43926 1.88259 8.35059L2.31855 8.00393V7.99679L1.88256 7.65006C1.77101 7.56146 1.63498 7.45333 1.52162 7.34779C1.38816 7.22346 1.21218 7.03726 1.07941 6.76959C0.912214 6.43254 0.843488 6.05515 0.881128 5.68079C0.911021 5.3835 1.01007 5.14721 1.09114 4.98385C1.16001 4.84509 1.24921 4.69597 1.32235 4.57369L1.65696 4.01383C1.72605 3.89812 1.81102 3.75583 1.89649 3.63467C1.99766 3.49124 2.15063 3.30097 2.38393 3.13743C2.67937 2.93031 3.02534 2.80699 3.38517 2.78051C3.66931 2.75959 3.90815 2.8102 4.07723 2.85729C4.22007 2.89707 4.37589 2.95353 4.5026 2.99944L5.1272 3.22549L5.12889 3.22453C5.15189 3.21139 5.17499 3.19841 5.1982 3.18558L5.20005 3.18456L5.29443 2.63747C5.31775 2.50199 5.34633 2.33589 5.38321 2.18986C5.42677 2.01733 5.50267 1.78083 5.66577 1.54131C5.87192 1.23857 6.15725 0.998253 6.49063 0.846573C6.75439 0.726566 7.00033 0.691986 7.17779 0.678386ZM9.39546 2.89119C9.34026 2.57122 9.31266 2.41124 9.23133 2.29177C9.16259 2.19086 9.06753 2.11075 8.95639 2.06019C8.82479 2.00034 8.66246 2.00034 8.33779 2.00034H7.66139C7.33673 2.00034 7.17433 2.00034 7.04279 2.06019C6.93166 2.11075 6.83659 2.19086 6.76786 2.29177C6.68653 2.41124 6.65889 2.57122 6.60369 2.89119L6.49967 3.49409C6.46256 3.70921 6.44401 3.81677 6.40469 3.89945C6.36609 3.98064 6.33453 4.02501 6.2705 4.0881C6.20528 4.15235 6.08461 4.21906 5.84329 4.35247C5.82549 4.36231 5.80777 4.37227 5.79014 4.38234C5.5593 4.51418 5.44388 4.5801 5.35816 4.60242C5.27398 4.62434 5.22155 4.62885 5.13485 4.62163C5.04659 4.61429 4.9477 4.5785 4.74993 4.50693L4.07422 4.26238C3.77473 4.15399 3.62499 4.0998 3.48303 4.11025C3.36309 4.11907 3.24776 4.16018 3.14928 4.22921C3.03273 4.31092 2.95103 4.44762 2.78763 4.72101L2.48139 5.23343C2.30889 5.52206 2.22263 5.66637 2.20777 5.81418C2.19523 5.93897 2.21813 6.06476 2.27387 6.17712C2.33987 6.31019 2.47146 6.41484 2.73463 6.62413L3.21789 7.00846C3.38577 7.14193 3.46971 7.20873 3.52233 7.28026C3.57922 7.35766 3.60348 7.40793 3.62862 7.50059C3.65189 7.58633 3.65189 7.72433 3.65189 8.00033C3.65189 8.27633 3.65189 8.41433 3.62862 8.50013C3.60347 8.59279 3.57922 8.64306 3.52235 8.72039C3.46971 8.79199 3.38577 8.85873 3.21788 8.99226L2.73467 9.37652C2.47149 9.58586 2.33991 9.69046 2.27389 9.82359C2.21816 9.93593 2.19525 10.0617 2.2078 10.1865C2.22267 10.3343 2.30891 10.4786 2.48141 10.7673L2.78766 11.2797C2.95106 11.5531 3.03275 11.6898 3.14931 11.7715C3.24779 11.8405 3.36311 11.8816 3.48306 11.8905C3.62501 11.9009 3.77476 11.8467 4.07425 11.7383L4.74995 11.4938C4.9477 11.4222 5.04659 11.3864 5.13486 11.3791C5.22155 11.3719 5.27399 11.3763 5.35817 11.3983C5.44389 11.4206 5.5593 11.4865 5.79014 11.6183C5.80778 11.6284 5.82549 11.6384 5.84329 11.6482C6.08461 11.7816 6.20528 11.8483 6.27049 11.9126C6.33453 11.9757 6.36609 12.0201 6.40469 12.1013C6.44401 12.1839 6.46256 12.2915 6.49967 12.5066L6.60369 13.1095C6.65889 13.4295 6.68653 13.5895 6.76786 13.7089C6.83659 13.8098 6.93166 13.8899 7.04279 13.9405C7.17433 14.0003 7.33673 14.0003 7.66139 14.0003H8.33779C8.66246 14.0003 8.82479 14.0003 8.95639 13.9405C9.06753 13.8899 9.16259 13.8098 9.23133 13.7089C9.31266 13.5895 9.34026 13.4295 9.39546 13.1095L9.49953 12.5066C9.53659 12.2915 9.55519 12.1839 9.59446 12.1013C9.63306 12.0201 9.66466 11.9757 9.72866 11.9126C9.79393 11.8483 9.91459 11.7816 10.1559 11.6482C10.1737 11.6384 10.1914 11.6284 10.209 11.6183C10.4399 11.4865 10.5553 11.4206 10.641 11.3983C10.7252 11.3763 10.7776 11.3719 10.8643 11.3791C10.9526 11.3864 11.0515 11.4222 11.2492 11.4938L11.9249 11.7383C12.2244 11.8467 12.3742 11.9009 12.5161 11.8905C12.6361 11.8816 12.7514 11.8405 12.8499 11.7715C12.9664 11.6898 13.0481 11.5531 13.2115 11.2797L13.5178 10.7673C13.6903 10.4787 13.7765 10.3343 13.7914 10.1865C13.8039 10.0617 13.781 9.93593 13.7253 9.82359C13.6593 9.69053 13.5277 9.58586 13.2645 9.37652L12.7813 8.99226C12.6134 8.85873 12.5295 8.79199 12.4769 8.72039C12.42 8.64306 12.3957 8.59279 12.3705 8.50013C12.3473 8.41439 12.3473 8.27633 12.3473 8.00033C12.3473 7.72433 12.3473 7.58633 12.3705 7.50059C12.3957 7.40793 12.42 7.35766 12.4769 7.28026C12.5295 7.20873 12.6134 7.14193 12.7813 7.00846L13.2645 6.62413C13.5277 6.41483 13.6593 6.31019 13.7253 6.17711C13.7811 6.06475 13.8039 5.93896 13.7914 5.81417C13.7765 5.66637 13.6903 5.52205 13.5178 5.23342L13.2115 4.72101C13.0481 4.44761 12.9665 4.31091 12.8499 4.22921C12.7514 4.16017 12.6361 4.11906 12.5161 4.11023C12.3742 4.09979 12.2245 4.15398 11.9249 4.26237L11.2493 4.50692C11.0515 4.57849 10.9526 4.61428 10.8643 4.62163C10.7776 4.62885 10.7252 4.62433 10.641 4.60241C10.5553 4.58009 10.4399 4.51417 10.2091 4.38234C10.1914 4.37227 10.1737 4.36231 10.1559 4.35247C9.91459 4.21906 9.79393 4.15235 9.72866 4.0881C9.66466 4.02501 9.63306 3.98064 9.59446 3.89945C9.55519 3.81677 9.53659 3.70921 9.49953 3.49409L9.39546 2.89119Z" fill="#4F4F4F"/>
</g>
<defs>
<clipPath id="clip0_136_6564">
<rect width="16" height="16" fill="white"/>
</clipPath>
</defs>
</svg>
