<svg width="116" height="116" viewBox="0 0 116 116" fill="none" xmlns="http://www.w3.org/2000/svg">
<path d="M60.6549 16.6243C58.5686 12.1272 57.5255 9.87864 55.6847 9.68868C53.8438 9.49871 52.4244 11.4931 49.5856 15.482L48.8511 16.514C48.0444 17.6475 47.6411 18.2142 47.0603 18.5557C46.4794 18.8972 45.7869 18.9747 44.4018 19.1298L43.1408 19.271C38.2667 19.8167 35.8296 20.0896 35.1049 21.7878C34.3803 23.4861 35.848 25.4851 38.7833 29.483L39.5427 30.5173C40.3769 31.6534 40.7939 32.2215 40.9452 32.8866C41.0965 33.5517 40.965 34.2386 40.7018 35.6124L40.4622 36.8631C39.5361 41.6975 39.0731 44.1147 40.466 45.3542C41.859 46.5938 44.1855 45.8348 48.8385 44.3168L50.0422 43.924C51.3645 43.4927 52.0256 43.277 52.6999 43.3466C53.3743 43.4162 53.9855 43.7632 55.2079 44.4571L56.3208 45.0889C60.6226 47.531 62.7735 48.7521 64.3591 47.8199C65.9447 46.8877 65.9148 44.4197 65.8552 39.4835L65.8397 38.2065C65.8228 36.8038 65.8143 36.1025 66.0798 35.4804C66.3452 34.8583 66.8546 34.3858 67.8732 33.4409L68.8006 32.5807C72.3854 29.2556 74.1778 27.5931 73.7647 25.7774C73.3517 23.9617 71.0068 23.1954 66.3169 21.6627L65.1036 21.2661C63.7709 20.8306 63.1045 20.6128 62.5943 20.1588C62.084 19.7047 61.7876 19.0657 61.1947 17.7878L60.6549 16.6243Z" stroke="#1C274C" stroke-width="1.5"/>
<path d="M53.1662 106.333C51.5551 95.8611 49.2996 71.5333 53.1662 58" stroke="#1C274C" stroke-width="1.5" stroke-linecap="round"/>
<path d="M70.082 106.333C70.082 90.2221 77.332 62.8332 106.332 45.9165" stroke="#1C274C" stroke-width="1.5" stroke-linecap="round"/>
<path d="M24.1672 64.1284C24.1672 64.1284 27.307 67.7429 30.0763 68.485C32.8457 69.227 37.3721 67.6667 37.3721 67.6667C37.3721 67.6667 33.7576 70.8065 33.0155 73.5758C32.2735 76.3452 33.8338 80.8716 33.8338 80.8716C33.8338 80.8716 30.694 77.2571 27.9247 76.515C25.1553 75.773 20.6289 77.3333 20.6289 77.3333C20.6289 77.3333 24.2434 74.1935 24.9855 71.4242C25.7275 68.6548 24.1672 64.1284 24.1672 64.1284Z" stroke="#1C274C" stroke-linejoin="round"/>
</svg>
