<svg width="132" height="132" viewBox="0 0 132 132" fill="none" xmlns="http://www.w3.org/2000/svg">
<path d="M93.5 66C108.688 66 121 53.6878 121 38.5C121 23.3122 108.688 11 93.5 11C78.3122 11 66 23.3122 66 38.5C66 42.8991 67.0329 47.057 68.8695 50.7443C69.3576 51.7242 69.52 52.8442 69.2371 53.9017L67.5992 60.0233C66.8881 62.6807 69.3193 65.1119 71.9767 64.4008L78.0983 62.7629C79.1558 62.48 80.2758 62.6424 81.2557 63.1305C84.943 64.9671 89.1009 66 93.5 66Z" stroke="#1C274C" stroke-width="1.5"/>
<path d="M82.5 38.5H104.5M93.5 49.5L93.5 27.5" stroke="#1C274C" stroke-width="1.5" stroke-linecap="round"/>
<path d="M44.2067 40.2389L47.7763 46.6351C50.9977 52.4072 49.7045 59.9793 44.6309 65.0529C44.6309 65.0529 44.6309 65.0529 44.6309 65.0529C44.6308 65.053 38.4769 71.2072 49.6348 82.3652C60.792 93.5223 66.9463 87.3699 66.9471 87.3691C66.9471 87.3691 66.9471 87.3691 66.9471 87.3691C72.0207 82.2955 79.5928 81.0023 85.3649 84.2237L91.7611 87.7932C100.477 92.6575 101.506 104.881 93.8452 112.542C89.2417 117.146 83.6022 120.728 77.368 120.964C66.8733 121.362 49.0505 118.706 31.1724 100.828C13.2942 82.9495 10.6382 65.1267 11.036 54.632C11.2724 48.3978 14.8544 42.7583 19.4579 38.1548C27.1192 30.4936 39.3425 31.5229 44.2067 40.2389Z" stroke="#1C274C" stroke-width="1.5" stroke-linecap="round"/>
</svg>
