<svg width="106" height="106" viewBox="0 0 106 106" fill="none" xmlns="http://www.w3.org/2000/svg">
<g id="Linear / Messages, Conversation /  Chat  Square Check">
<path id="Vector" d="M57.8 94.4625L58.4455 94.8445L57.8 94.4625ZM60.1943 90.4174L59.5489 90.0354L60.1943 90.4174ZM45.8068 90.4174L45.1614 90.7994L45.8068 90.4174ZM48.2011 94.4625L48.8465 94.0805L48.2011 94.4625ZM10.515 70.2844L11.2079 69.9974H11.2079L10.515 70.2844ZM34.4046 83.8791L34.3917 84.629L34.4046 83.8791ZM22.4664 82.2358L22.1794 82.9287H22.1794L22.4664 82.2358ZM95.4863 70.2844L96.1792 70.5714L95.4863 70.2844ZM71.5965 83.8791L71.5836 83.1292L71.5965 83.8791ZM83.5349 82.2358L83.8219 82.9287L83.5349 82.2358ZM86.6225 12.0877L86.2306 12.7272L86.6225 12.0877ZM93.9131 19.3783L94.5526 18.9864V18.9864L93.9131 19.3783ZM19.3788 12.0877L18.9869 11.4482L19.3788 12.0877ZM12.0882 19.3783L11.4487 18.9864L12.0882 19.3783ZM41.5296 84.8436L41.9067 84.1953H41.9067L41.5296 84.8436ZM58.4455 94.8445L60.8397 90.7994L59.5489 90.0354L57.1546 94.0805L58.4455 94.8445ZM45.1614 90.7994L47.5557 94.8445L48.8465 94.0805L46.4522 90.0354L45.1614 90.7994ZM57.1546 94.0805C55.3111 97.1951 50.6901 97.1951 48.8465 94.0805L47.5557 94.8445C49.9801 98.9404 56.0211 98.9404 58.4455 94.8445L57.1546 94.0805ZM46.3757 9.5835H59.6257V8.0835H46.3757V9.5835ZM96.4173 46.3752V50.7918H97.9173V46.3752H96.4173ZM9.58398 50.7918V46.3752H8.08398V50.7918H9.58398ZM8.08398 50.7918C8.08398 55.9263 8.08358 59.8148 8.29585 62.9259C8.50858 66.0438 8.93741 68.4357 9.82207 70.5714L11.2079 69.9974C10.4116 68.0749 9.99989 65.8653 9.79237 62.8238C9.58439 59.7756 9.58398 55.9469 9.58398 50.7918H8.08398ZM34.4175 83.1292C28.873 83.0337 25.5251 82.691 22.7534 81.5429L22.1794 82.9287C25.2404 84.1967 28.8473 84.5334 34.3917 84.629L34.4175 83.1292ZM9.82207 70.5714C12.1395 76.1662 16.5846 80.6113 22.1794 82.9287L22.7534 81.5429C17.5261 79.3777 13.3731 75.2247 11.2079 69.9974L9.82207 70.5714ZM96.4173 50.7918C96.4173 55.9469 96.4169 59.7756 96.2089 62.8238C96.0014 65.8653 95.5898 68.0749 94.7934 69.9974L96.1792 70.5714C97.0639 68.4357 97.4927 66.0438 97.7055 62.9259C97.9177 59.8148 97.9173 55.9263 97.9173 50.7918H96.4173ZM71.6094 84.629C77.1539 84.5334 80.7609 84.1967 83.8219 82.9287L83.2479 81.5429C80.4762 82.691 77.1282 83.0337 71.5836 83.1292L71.6094 84.629ZM94.7934 69.9974C92.6282 75.2247 88.4752 79.3777 83.2479 81.5429L83.8219 82.9287C89.4167 80.6113 93.8618 76.1662 96.1792 70.5714L94.7934 69.9974ZM59.6257 9.5835C66.869 9.5835 72.2488 9.58429 76.4833 9.9869C80.7066 10.3885 83.7131 11.1844 86.2306 12.7272L87.0144 11.4482C84.2215 9.73676 80.9584 8.90563 76.6253 8.49364C72.3034 8.0827 66.84 8.0835 59.6257 8.0835V9.5835ZM97.9173 46.3752C97.9173 39.1609 97.9181 33.6975 97.5072 29.3755C97.0952 25.0424 96.2641 21.7793 94.5526 18.9864L93.2736 19.7702C94.8164 22.2877 95.6124 25.2942 96.0139 29.5175C96.4165 33.752 96.4173 39.1318 96.4173 46.3752H97.9173ZM86.2306 12.7272C89.1011 14.4862 91.5146 16.8997 93.2737 19.7702L94.5526 18.9864C92.6699 15.9141 90.0867 13.331 87.0144 11.4482L86.2306 12.7272ZM46.3757 8.0835C39.1614 8.0835 33.698 8.0827 29.376 8.49364C25.0429 8.90563 21.7798 9.73676 18.9869 11.4482L19.7707 12.7272C22.2882 11.1844 25.2947 10.3885 29.518 9.9869C33.7525 9.58429 39.1323 9.5835 46.3757 9.5835V8.0835ZM9.58398 46.3752C9.58398 39.1318 9.58478 33.752 9.98739 29.5175C10.3889 25.2942 11.1849 22.2877 12.7277 19.7702L11.4487 18.9864C9.73725 21.7793 8.90612 25.0424 8.49413 29.3755C8.08319 33.6975 8.08398 39.1609 8.08398 46.3752H9.58398ZM18.9869 11.4482C15.9146 13.331 13.3314 15.9141 11.4487 18.9864L12.7277 19.7702C14.4867 16.8997 16.9002 14.4862 19.7707 12.7272L18.9869 11.4482ZM46.4522 90.0354C45.5309 88.4788 44.8139 87.266 44.1372 86.3375C43.4513 85.3964 42.7739 84.6997 41.9067 84.1953L41.1526 85.4919C41.7769 85.855 42.3095 86.3765 42.925 87.221C43.5498 88.0782 44.2256 89.2185 45.1614 90.7994L46.4522 90.0354ZM34.3917 84.629C36.2835 84.6616 37.6511 84.6859 38.7337 84.8058C39.8023 84.9241 40.5307 85.1303 41.1526 85.4919L41.9067 84.1953C41.0371 83.6895 40.0808 83.4458 38.8988 83.3149C37.7306 83.1855 36.2815 83.1613 34.4175 83.1292L34.3917 84.629ZM60.8397 90.7994C61.7755 89.2185 62.4514 88.0782 63.0761 87.221C63.6916 86.3765 64.2242 85.855 64.8485 85.4919L64.0944 84.1953C63.2272 84.6997 62.5498 85.3964 61.8639 86.3375C61.1872 87.266 60.4702 88.4788 59.5489 90.0354L60.8397 90.7994ZM71.5836 83.1292C69.7197 83.1613 68.2705 83.1855 67.1024 83.3149C65.9203 83.4458 64.9641 83.6895 64.0944 84.1953L64.8485 85.4919C65.4704 85.1303 66.1988 84.9241 67.2675 84.8058C68.35 84.6859 69.7177 84.6616 71.6094 84.629L71.5836 83.1292Z" fill="#1C274C"/>
<path id="Vector_2" d="M39.75 48.9367L48.5833 57.4167L66.25 39.75" stroke="#1C274C" stroke-width="1.5" stroke-linecap="round" stroke-linejoin="round"/>
</g>
</svg>
