<svg width="90" height="90" viewBox="0 0 90 90" fill="none" xmlns="http://www.w3.org/2000/svg">
<g id="vuesax/linear/user-edit">
<g id="user-edit">
<path id="Vector" d="M45 45C55.3553 45 63.75 36.6053 63.75 26.25C63.75 15.8947 55.3553 7.5 45 7.5C34.6447 7.5 26.25 15.8947 26.25 26.25C26.25 36.6053 34.6447 45 45 45Z" stroke="#292D32" stroke-width="1.5" stroke-linecap="round" stroke-linejoin="round"/>
<g id="Group">
<path id="Vector_2" d="M72.0375 59.0248L58.7623 72.3C58.2373 72.825 57.7499 73.7998 57.6374 74.5123L56.9249 79.5748C56.6624 81.4123 57.9374 82.6873 59.7749 82.4248L64.8373 81.7123C65.5498 81.5998 66.5624 81.1123 67.0499 80.5873L80.3248 67.3124C82.6123 65.0249 83.6998 62.3623 80.3248 58.9873C76.9873 55.6498 74.325 56.7373 72.0375 59.0248Z" stroke="#292D32" stroke-width="1.5" stroke-miterlimit="10" stroke-linecap="round" stroke-linejoin="round"/>
<path id="Vector_3" d="M70.125 60.9375C71.25 64.9875 74.3999 68.1374 78.4499 69.2624" stroke="#292D32" stroke-width="1.5" stroke-miterlimit="10" stroke-linecap="round" stroke-linejoin="round"/>
</g>
<path id="Vector_4" d="M12.7871 82.5C12.7871 67.9875 27.2247 56.25 44.9997 56.25C48.8997 56.25 52.6496 56.8125 56.1371 57.8625" stroke="#292D32" stroke-width="1.5" stroke-linecap="round" stroke-linejoin="round"/>
</g>
</g>
</svg>
