<svg width="118" height="118" viewBox="0 0 118 118" fill="none" xmlns="http://www.w3.org/2000/svg">
<path d="M97.3005 73.4057C87.1722 83.4849 72.668 86.5824 59.9339 82.5999L36.7764 105.708C35.1047 107.429 31.8105 108.462 29.4505 108.117L18.7322 106.642C15.1922 106.151 11.898 102.807 11.3572 99.2674L9.8822 88.5491C9.53804 86.1891 10.6689 82.8949 12.2914 81.2233L35.3997 58.1149C31.4664 45.3316 34.5147 30.8274 44.643 20.7482C59.1472 6.24408 82.698 6.24408 97.2514 20.7482C111.805 35.2524 111.805 58.9016 97.3005 73.4057Z" stroke="#292D32" stroke-width="1.5" stroke-miterlimit="10" stroke-linecap="round" stroke-linejoin="round"/>
<path d="M33.875 85.9927L45.1833 97.301" stroke="#292D32" stroke-width="1.5" stroke-miterlimit="10" stroke-linecap="round" stroke-linejoin="round"/>
<path d="M71.293 54.0835C75.3661 54.0835 78.668 50.7816 78.668 46.7085C78.668 42.6354 75.3661 39.3335 71.293 39.3335C67.2199 39.3335 63.918 42.6354 63.918 46.7085C63.918 50.7816 67.2199 54.0835 71.293 54.0835Z" stroke="#292D32" stroke-width="1.5" stroke-linecap="round" stroke-linejoin="round"/>
</svg>
