<svg width="16" height="16" viewBox="0 0 16 16" fill="none" xmlns="http://www.w3.org/2000/svg">
<path fill-rule="evenodd" clip-rule="evenodd" d="M4.73204 3.33366H1.9987C1.63051 3.33366 1.33203 3.63214 1.33203 4.00033C1.33203 4.36851 1.63051 4.66699 1.9987 4.66699H2.70573L3.25519 13.4584C3.32107 14.5125 4.19517 15.3337 5.2513 15.3337H10.7461C11.8022 15.3337 12.6763 14.5125 12.7422 13.4584L13.2917 4.66699H13.9987C14.3669 4.66699 14.6654 4.36851 14.6654 4.00033C14.6654 3.63214 14.3669 3.33366 13.9987 3.33366H12.6702C12.6666 3.33363 12.6629 3.33363 12.6592 3.33366H11.2654C10.9565 1.81217 9.61136 0.666992 7.9987 0.666992C6.38606 0.666992 5.04089 1.81217 4.73204 3.33366ZM6.1125 3.33366H9.8849C9.61036 2.55687 8.8695 2.00033 7.9987 2.00033C7.1279 2.00033 6.38706 2.55687 6.1125 3.33366ZM11.9557 4.66699H4.04166L4.58593 13.3753C4.60789 13.7266 4.89926 14.0003 5.2513 14.0003H10.7461C11.0982 14.0003 11.3895 13.7266 11.4115 13.3753L11.9557 4.66699ZM9.51803 6.67346C9.88536 6.69919 10.1623 7.01772 10.1366 7.38506L9.85756 11.3753C9.8319 11.7426 9.5133 12.0195 9.14603 11.9939C8.7787 11.9681 8.50176 11.6496 8.5275 11.2823L8.8065 7.29206C8.83216 6.92473 9.15076 6.64781 9.51803 6.67346ZM6.47936 6.67353C6.84663 6.64783 7.16523 6.92473 7.1909 7.29206L7.46996 11.2823C7.49563 11.6496 7.2187 11.9682 6.85143 11.9939C6.4841 12.0195 6.16554 11.7426 6.13985 11.3753L5.86082 7.38506C5.83514 7.01779 6.11207 6.69919 6.47936 6.67353Z" fill="#4F4F4F"/>
</svg>
