<svg width="138" height="48" viewBox="0 0 138 48" fill="none" xmlns="http://www.w3.org/2000/svg">
<g id="Layer_1" clip-path="url(#clip0_115_1742)">
<g id="Group">
<g id="Group_2">
<path id="Vector" d="M61.9925 34.9194L59.6016 29.6602H60.2185L62.456 34.6114H62.1153L64.3681 29.6602H64.9451L62.5542 34.9194H61.9925Z" fill="#DF2C2C"/>
<path id="Vector_2" d="M77.293 34.9642C76.8879 34.9642 76.5104 34.8985 76.1635 34.7639C75.8167 34.6324 75.5159 34.444 75.2612 34.2018C75.0064 33.9596 74.81 33.6756 74.6688 33.3527C74.5276 33.0298 74.457 32.674 74.457 32.2883C74.457 31.9026 74.5276 31.5468 74.6688 31.2239C74.81 30.901 75.0095 30.6169 75.2612 30.3747C75.5159 30.1325 75.8136 29.9442 76.1605 29.8126C76.5042 29.6811 76.8817 29.6123 77.293 29.6123C77.7043 29.6123 78.0757 29.6781 78.4194 29.8126C78.7632 29.9442 79.064 30.1325 79.3187 30.3717C79.5735 30.6109 79.7699 30.895 79.9142 31.2209C80.0554 31.5468 80.126 31.9026 80.126 32.2883C80.126 32.674 80.0554 33.0298 79.9142 33.3557C79.773 33.6816 79.5735 33.9656 79.3187 34.2048C79.064 34.444 78.7663 34.6324 78.4194 34.7639C78.0757 34.8955 77.6982 34.9642 77.293 34.9642ZM77.293 34.4679C77.6184 34.4679 77.9161 34.4141 78.1923 34.3065C78.4686 34.1988 78.7049 34.0463 78.9105 33.849C79.1131 33.6517 79.2727 33.4214 79.3863 33.1583C79.4998 32.8952 79.5551 32.6052 79.5551 32.2913C79.5551 31.9773 79.4998 31.6873 79.3863 31.4242C79.2727 31.1611 79.1162 30.9309 78.9105 30.7335C78.7049 30.5362 78.4686 30.3837 78.1923 30.2761C77.9161 30.1684 77.6184 30.1146 77.293 30.1146C76.9677 30.1146 76.6669 30.1684 76.3907 30.2761C76.1144 30.3837 75.872 30.5362 75.6663 30.7335C75.4607 30.9309 75.3011 31.1611 75.1875 31.4242C75.074 31.6873 75.0187 31.9773 75.0187 32.2913C75.0187 32.6052 75.074 32.8892 75.1875 33.1553C75.3011 33.4214 75.4607 33.6517 75.6663 33.849C75.872 34.0463 76.1144 34.1988 76.3907 34.3065C76.6669 34.4141 76.9677 34.4679 77.293 34.4679Z" fill="#DF2C2C"/>
<path id="Vector_3" d="M91.7124 34.9193V32.9669L91.8444 33.3138L89.5547 29.6631H90.1624L92.1758 32.8713H91.8505L93.8639 29.6631H94.4348L92.1451 33.3138L92.2771 32.9669V34.9193H91.7154H91.7124Z" fill="#DF2C2C"/>
<path id="Vector_4" d="M103.398 34.9194L105.865 29.6602H106.427L108.895 34.9194H108.293L106.025 29.9831H106.255L103.987 34.9194H103.395H103.398ZM104.367 33.5141L104.536 33.0627H107.676L107.845 33.5141H104.367Z" fill="#DF2C2C"/>
<path id="Vector_5" d="M121.333 34.9642C120.922 34.9642 120.542 34.8985 120.195 34.7639C119.848 34.6324 119.547 34.444 119.292 34.2048C119.038 33.9656 118.841 33.6816 118.7 33.3557C118.559 33.0298 118.488 32.674 118.488 32.2883C118.488 31.9026 118.559 31.5468 118.7 31.2209C118.841 30.895 119.041 30.6109 119.299 30.3717C119.556 30.1325 119.857 29.9442 120.204 29.8126C120.551 29.6811 120.931 29.6123 121.343 29.6123C121.754 29.6123 122.131 29.6751 122.472 29.8007C122.813 29.9262 123.104 30.1176 123.347 30.3717L122.991 30.7246C122.764 30.5033 122.515 30.3478 122.242 30.2521C121.969 30.1565 121.677 30.1086 121.364 30.1086C121.03 30.1086 120.723 30.1624 120.443 30.2701C120.164 30.3777 119.919 30.5302 119.71 30.7275C119.501 30.9249 119.338 31.1551 119.225 31.4182C119.108 31.6813 119.05 31.9713 119.05 32.2853C119.05 32.5992 119.108 32.8833 119.225 33.1494C119.342 33.4155 119.501 33.6457 119.71 33.843C119.919 34.0404 120.161 34.1928 120.443 34.3005C120.723 34.4081 121.03 34.4619 121.358 34.4619C121.665 34.4619 121.957 34.4171 122.233 34.3274C122.509 34.2377 122.761 34.0852 122.991 33.8699L123.316 34.2915C123.058 34.5128 122.758 34.6772 122.414 34.7908C122.07 34.9044 121.708 34.9613 121.333 34.9613V34.9642ZM122.767 34.2257V32.2883H123.313V34.2945L122.767 34.2257Z" fill="#DF2C2C"/>
<path id="Vector_6" d="M134.751 34.438H137.998V34.9194H134.18V29.6602H137.881V30.1415H134.751V34.438ZM134.689 32.0102H137.544V32.4826H134.689V32.0102Z" fill="#DF2C2C"/>
</g>
<g id="Group_3">
<path id="Vector_7" d="M78.7392 17.9872C78.7392 21.8113 75.5564 24.9118 71.6308 24.9118H65.9435C62.0179 24.9118 58.832 21.8113 58.832 17.9872C58.832 14.1631 62.0149 11.0596 65.9435 11.0596H71.6308C75.5564 11.0596 78.7392 14.1601 78.7392 17.9872ZM74.473 17.9872C74.473 16.2022 72.9875 14.7551 71.1551 14.7551H66.4162C64.5838 14.7551 63.0983 16.2022 63.0983 17.9872C63.0983 19.7722 64.5838 21.2193 66.4162 21.2193H71.1551C72.9875 21.2193 74.473 19.7722 74.473 17.9872Z" fill="#DF2C2C"/>
<path id="Vector_8" d="M88.1842 17.9872C88.1842 19.8559 89.7404 21.3718 91.6586 21.3718H98.1378V19.6795H92.4505V16.2919H102.404V24.9118H91.0294C87.1039 24.9118 83.918 21.8113 83.918 17.9872C83.918 14.1631 87.1008 11.0596 91.0294 11.0596H102.404V14.5996H91.6617C89.7434 14.5996 88.1873 16.1155 88.1873 17.9842L88.1842 17.9872Z" fill="#DF2C2C"/>
<path id="Vector_9" d="M112.458 17.9872C112.458 19.8559 114.014 21.3718 115.932 21.3718H122.411V19.6795H116.724V16.2919H126.678V24.9118H115.303C111.377 24.9118 108.191 21.8113 108.191 17.9872C108.191 14.1631 111.374 11.0596 115.303 11.0596H126.678V14.5996H115.935C114.017 14.5996 112.461 16.1155 112.461 17.9842L112.458 17.9872Z" fill="#DF2C2C"/>
<path id="Vector_10" d="M133.113 24.9148V11.0625H137.38V24.9148H133.113Z" fill="#DF2C2C"/>
</g>
</g>
<g id="Group_4">
<path id="Vector_11" d="M23.2695 0.000120444C23.248 0.000120444 23.2296 0.000120444 23.2081 0.000120444C22.6556 0.0359994 22.1062 0.0868278 21.563 0.155596C21.7103 5.75271 21.5691 11.3498 21.0688 16.935C20.4979 23.2766 19.528 29.5524 17.4164 35.6099C16.2593 38.9258 14.7431 42.0622 12.5209 44.8488C12.4749 44.9086 12.4289 44.9594 12.3828 45.0132C15.0347 46.5112 17.9965 47.5397 21.1486 47.9941C22.0326 34.8983 23.4045 19.2551 23.2695 -0.00585938V0.000120444Z" fill="#DF2C2C"/>
<path id="Vector_12" d="M15.3524 26.6668C17.0896 22.3733 18.0411 17.8914 18.5874 13.3198C19.1061 8.97549 19.2657 3.59963 19.3118 1.04924C19.3118 0.878815 19.3241 0.71138 19.3394 0.543945C8.27165 2.96278 0 12.5933 0 24.1104C0 29.8391 2.0472 35.1013 5.47249 39.2423C6.75237 38.453 7.9371 37.5261 9.02669 36.4647C11.8964 33.6692 13.8761 30.3175 15.3524 26.6668Z" fill="#DF2C2C"/>
<path id="Vector_13" d="M32.1815 35.6127C30.0668 29.5552 29.0969 23.2794 28.526 16.9378C28.0257 11.3526 27.8845 5.75551 28.0318 0.158405C27.4824 0.089637 26.9269 0.0358187 26.3652 0.00292969C26.3591 0.00292969 26.3499 0.00292969 26.3438 0.00292969C26.3744 18.4925 27.7924 34.6829 28.9311 47.9312C31.9052 47.4438 34.7013 46.4422 37.2151 45.022C37.166 44.9682 37.123 44.9144 37.0769 44.8575C34.8517 42.0709 33.3386 38.9315 32.1815 35.6187V35.6127Z" fill="#DF2C2C"/>
<path id="Vector_14" d="M30.2539 0.541076C30.2693 0.708511 30.2815 0.875946 30.2815 1.04637C30.3306 3.59676 30.4872 8.97561 31.0059 13.317C31.5522 17.8885 32.5037 22.3704 34.2439 26.6639C35.7203 30.3146 37.6969 33.6633 40.5697 36.4618C41.6593 37.5233 42.8409 38.4501 44.1208 39.2395C47.5461 35.0984 49.5933 29.8362 49.5933 24.1075C49.5933 12.5904 41.3217 2.95991 30.2539 0.538086V0.541076Z" fill="#DF2C2C"/>
</g>
</g>
<defs>
<clipPath id="clip0_115_1742">
<rect width="138" height="48" fill="white"/>
</clipPath>
</defs>
</svg>
